<svg width="250" height="192" viewBox="0 0 250 192" fill="none" xmlns="http://www.w3.org/2000/svg">
<path d="M203.75 41C215.072 41 224.25 31.8218 224.25 20.5C224.25 9.17816 215.072 0 203.75 0C192.428 0 183.25 9.17816 183.25 20.5C183.25 31.8218 192.428 41 203.75 41Z" fill="black"/>
<path d="M193.964 85.3512C196.32 88.8541 199.696 91.5488 203.634 93.0704C207.572 94.592 211.882 94.8672 215.981 93.8587L249.97 85.3614L245.02 65.4764L211.03 73.9737L196.896 52.7869C195.404 50.5426 193.485 48.6142 191.248 47.1122C189.011 45.6102 186.5 44.564 183.858 44.0334L182 44.0335C177.59 43.152 149.726 53.5237 145.687 55.5C141.647 57.4763 121.511 56.257 119.5 60.2797L105.087 81.0667L123.424 90.2404L145.687 55.5V52.7869L160.58 60.2797L108.449 147.169H63V167.669H108.449C115.603 167.669 122.337 163.856 126.027 157.716L145.687 124.957L198.669 135.556L217.283 191.408L236.717 184.92L218.113 129.078C216.962 125.651 214.93 122.587 212.221 120.194C209.511 117.801 206.22 116.163 202.677 115.445L171.527 109.223L189.69 78.9449L193.964 85.3512Z" fill="black"/>
<path d="M185.554 40.9161C177.251 42.9917 191.875 48.308 190.177 36.2271C187.847 34.8311 191.809 34.1179 188.185 34.4874C178.303 35.4952 165.807 30.5576 160.745 36.9385C158.329 39.9842 157.665 42.995 159.902 45.3535C161.413 46.9456 164.245 48.2404 168.753 49.048C170.004 49.2721 172.89 51.2665 174.407 51.4115C177.035 51.2704 176.748 50.3041 177.443 51.3438C178.13 52.3708 178.305 53.5911 178.822 54.2482C179.281 54.8332 180.957 52.7819 182.56 51.9402C190.401 43.0672 189.724 41.8448 185.554 40.9161Z" fill="#F3FF08"/>
<path d="M160.745 36.9385C165.807 30.5576 178.303 35.4952 188.185 34.4874C191.421 39.5493 164.474 22.5389 165.46 22.0288C150.069 9.51208 128.773 6.14601 116.956 9.15403C112.893 23.3577 66.3418 15.4402 52.7519 8.58398C59.2635 17.2621 32.6091 18.0163 23.8709 22.2363C32.706 35.8773 62.2864 34.0287 76.4886 32.0459C83.9468 30.6597 97.3153 37.773 104.674 33.1338C97.4689 42.2727 82.7928 37.1456 75.9079 38.6913C67.4601 40.1098 24.2989 34.3315 23.1855 26.4094C22.1811 34.6919 13.3156 28.4427 12.836 35.4003C12.7572 38.0449 51.4433 52.2667 53.2468 53.4892C66.6666 58.4936 66.3606 46.9079 78.9938 49.8707C84.274 50.5268 89.511 46.2273 93.0753 45.879C101.17 42.8305 110.847 48.3106 112.224 47.064C112.263 47.0221 112.302 46.981 112.341 46.9406L112.402 46.8756C112.358 46.9336 112.298 46.9965 112.224 47.064C110.208 49.1921 103.046 44.9044 93.0753 45.879C91.6776 46.4053 81.2989 55.2433 79.8237 55.7757C71.2775 58.8602 74.2767 52.2337 62.7803 56.6561L39.7125 52.3245C39.7125 52.3245 19.7599 37.9615 11.131 41.2313C2.50206 44.501 4.904 52.1961 7.62939e-06 51.8467C7.62939e-06 51.8467 28.4111 54.5416 43.4054 66.0946C58.3996 77.6476 75.0154 68.2673 75.0154 68.2673C85.6219 68.2914 106.87 71.6695 113.118 62.7469C120.383 52.1992 139.057 68.5181 144.402 55.4175C146.816 49.4496 171.881 58.5571 178.822 54.2482C178.305 53.5911 178.13 52.3708 177.443 51.3438C174.087 50.5633 171.204 49.7997 168.753 49.048C164.245 48.2404 161.413 46.9456 159.902 45.3535C155.658 42.5938 156.681 39.8822 160.745 36.9385Z" fill="#FF0B0B"/>
</svg>
